<svg xmlns="http://www.w3.org/2000/svg" version="1" viewBox="0 0 1326 1326"><path fill="#392a4d" d="M431 34c-.5 5.3-3 19.4-5 31.5-4.5 23.8-5.2 28-10.5 60.5-2 11.8-4 22.8-4.4 24.5-.4 1.6-4.5 14.2-9 28-9.7 30.8-11.6 37.2-13 45.5-.6 3.6-4 15.3-7.5 26l-16 50c-5.4 16.8-11.6 34.3-13.7 39-5.4 11.5-16.2 39.3-18.3 46.8-2.5 8.7-1.7 20.5 1.5 25.8 2.8 4.4 4.2 6 8 9 1.5 1 5.4 5.3 8.7 9.4 8.4 10.3 26.2 27.3 38.8 37l6.4 4.7-9 8.3c-5.3 4.7-11.4 11.6-14.3 16-5.3 7.8-13.2 16.8-35.6 40.4-6.7 7.2-15.5 16.7-19.3 21-4 4.5-14.8 16.2-24.3 26-21.5 22.6-23.8 25.4-26.2 32-1.8 4.6-2 9.6-3.2 44.6-1.2 41-1 45.3 3 81.5l1.2 10 4.7 3.6c8.3 6.6 37.2 25.6 52.5 34.5 8.3 4.8 15 9 15.3 9 .2 0-1.3 4-3.2 8.6-4.2 10.3-7.5 22.4-8.3 30.7-.6 6-.5 6.3 2.7 9.3 1.7 1.6 7 5.2 11.5 8 11.7 7 21.6 15 31.6 25l8.6 8.6-4.6 6.6c-2.5 3.6-7.5 13.3-11 21.4-3.4 8.2-7.2 16.2-8.4 18-1 1.5-2 3.3-2 4-.2 1-1 3.4-3.2 8.3-1.2 2.6-1.3 3.6-.2 5 12 16.4 15.8 22.3 21.3 33 4.8 9.4 9 15.7 16.8 25.4l10.4 13-4.2 6c-5 7-17 28.2-19.2 33.5-.8 2-3.4 7.3-5.8 12l-5 10.7c-.3 1.2-2 3.6-3.5 5.3-5.4 5.8-5.2 15.4.6 25.2 5.5 9.6 11 16 28.5 34 18.5 19.2 29.7 29 59 52.2l36 28.6c8.7 7 21.5 16.6 28.5 21.5 7 5 21.6 15.5 32.4 23.5 10.7 8 23.5 17 28.3 19.8l8.7 5.4 10.7-4.2c41.3-16 94.7-33.3 152.8-49.5l58.5-16.7 57-16.5 22.5-6.5 20 .6c11 .3 23.5 1 27.6 1 4.2.4 15.8 1 26 1.6l22.5 1.5c7 .7 35.5 2.5 45.5 2.7l9.5.3.8-7c3-26.7 10-62 17-83.5 1.4-4 2.4-7.6 2.4-7.6-1-.6-33.3-1.5-64.2-2-68.7-.6-103 3-137 14-10.8 3.6-15.3 4.5-26.5 5.5-21.7 1.8-33.8 4.8-49.5 12-10.7 5-41.3 16.7-77.5 29.8-15 5.5-40 15-55 21l-30 11.7c-2 .4-4.3-.4-9-3.2-10-5.8-18.5-12-21.2-15-1.3-1.5-3.2-3.3-4-3.8l-16.5-11c-8-5.6-18.8-12.5-23.6-15.4-4.8-2.8-15-9.8-22.5-15.4s-19.8-14.3-27.2-19.3c-9.2-6-14.4-10.3-16.2-13-2.4-3.7-2.5-4-1-7.4.7-2 5.2-15 9.8-29 4.7-14 10-28.2 11.5-31.4 1.7-3.3 3-6.7 3-7.8 0-2.5.6-2.3 6 2 2.4 2 6.8 5.4 9.5 7.2 2.8 2 7 5.2 9.3 7.4 4 3.7 3.7 3-4.8-10-5-7.6-12.2-18-16-23.3-3.7-5-11-17.2-16.4-27-5.3-9.7-11.5-20.3-13.8-23.6-11.2-16-14-20.7-13-22.3 2-3.3 24.3-17 37.2-22.7 26-11.6 49.8-18.2 89.5-25 23-3.8 42-4.8 56-3L664 899c6 .6 17 2.7 25.5 5 24.3 6.5 35 8.2 37 6.3.3-.5 2.8-.8 5.3-.8 4 0 4.7-.3 5-2 .2-1.8-1-2.4-9-4.8-5.2-1.5-10-2.7-11-2.7-.7 0-2-.5-2.5-1-2-2-25.4-11.5-41-16.4-15-4.8-37-10.2-47.3-11.7-9.4-1.4-53.6-.7-65 1-3.6.4-11 1.5-16.5 2.3l-18.8 2.7-8.8 1.2-5.8-4c-3-2-14-8.8-24-14.6-15.7-9-20-12.2-29-20.6-6-5.4-12.5-11.3-14.7-13-2.4-2-4-4-3.7-4.8.2-1 3-9 6-18.2 6-18.7 8.2-27 8.2-32.2 0-3.2-.4-4-2.5-4.4-1.4-.3-3-1-3.3-1.8-.4-.6-1.8-1.8-3.2-2.6-11.7-6.7-28.4-17.3-32.5-20.4-4.8-3.7-30-16.5-40.8-20.7-3-1.2-9.5-4-14.7-6.5-5.2-2.4-10.7-4.6-12-5-2.7-.5-2.7-.6-3.3-11.7-.3-6.2-1.5-17.8-2.7-25.8-1.8-13.2-2-14.5-.4-15.3 3.2-1.8 23-19.4 32.5-28.7 13.2-13 33-34.2 38.8-41.7 2.7-3.4 8-9.7 12-14 10-11 9.3-10 27-39.3 9.2-15.3 21.5-37.6 29.2-53 13-26 13.2-26.4 12-30-1.6-4.8-7-10-18-17.5-4.7-3.2-12-8.8-16-12.4-4-3.4-11-9-15.5-12.3l-11.7-8.8-3.6-3 2.5-6.3C432 379.2 443 348.2 447 335c3.8-12 14.2-56.5 15.5-66 .8-6.5 5-27 9-44.5 2-8.3 4.4-22.3 5.5-31.3 1-9 3-20.6 4-26 1-5 2.4-13 3-17.6.5-4.4 1.6-12.6 2.5-18 .8-5.6 2-16.6 2.6-24.6.6-8 2-20.2 3-27 2.3-15 4.3-40 3.2-41-.8-1-52.4-12.8-58.8-13.7l-4-.5L431 34zM557.6 160.2c-1.6 7.3-5 23-7.7 34.7-5.7 24.2-9.5 45-11 59.5-2.6 27-2 92.6 1 118.6l1.6 14.5c.3 3.3 1.3 12.5 2.3 20.5l1.5 14.5 4.5-.3c2.5 0 16.2-2 30.5-4.2 14.3-2 29.6-4.3 34-5 4.4-.4 13.3-1.6 19.7-2.4 6.5-1 22.7-2.7 36-4 38.8-4 83-9.2 117.8-13.6l47-6c13-1.7 27.7-3.8 33-4.7l9.2-1.7-.6-5.5-2-18.4c-1-7-1.8-18-2.2-24.3-.4-6.2-1-11.5-1.3-11.7-1-.7-44.5 4.4-67 8-23 3.4-51.8 7.4-87.5 12-28.2 3.5-68.5 10-85 13.6-17.2 3.7-32.2 5.3-39.6 4.4-5.5-.7-5.8-.8-6.8-4.4-2.6-9-6.4-30-9.2-51-1.7-12.4-4.7-31-6.6-41.2-3.6-18.4-3.6-18.6-2.8-34.5.5-8.8 1-28.6 1-44 0-26-.2-28.3-2-32-3.8-7.4-5-6-8 8.7zM641.5 430c-17 9.5-22 15.2-25 29.8-1.3 6.3-1.3 8.2-.2 13.2 1.8 7.5 5.6 14 11 18.4 5.4 4.4 9 6 19.3 8 8 1.6 8.3 1.6 13.8-.4 10.3-4 22.5-14.7 28.6-25.4 1.6-2.7 3.6-8 4.5-11.8 2.8-11 .4-18-9-26.7-6.7-6-11-8.3-18.3-10-9.8-2-12.8-1.4-24.7 5zM520.5 586.4l-8.3 2.6c-8 2.4-12.3 5.4-14.2 10-2 4.8-1 6 6 6 14 0 27 4.6 44 15.6 8 5.2 12.8 11.4 16.2 21.7 1.7 5 2 9 2.2 20.3v14.2l3.4-4.7c5.6-7.5 9.2-15.7 11.2-25 2.4-10.3 2.4-15 .5-26-3-16.4-14.2-27.3-33.8-32.6-5-1.3-25-2.8-27.2-2zM431.2 701.2c-11.7 2.5-19 4.6-19 5.2.5 1.2 17.7 7.4 31.3 11.3 11.4 3.2 32.6 4 59.5 2.4 15.7-.8 19.3-.8 24 .5 3 .8 6.7 1.5 8 1.5 3 0 7-3.6 5.4-5-1-.7-18.5-8.5-27.6-12-8.5-3.5-30.3-7-46.8-7.4-15.3-.5-15.7-.5-34.8 3.6z"/></svg>
